<?xml version="1.0" ?><svg style="enable-background:new 0 0 48 48;" version="1.1" viewBox="0 0 48 48" xml:space="preserve" xmlns="http://www.w3.org/2000/svg" xmlns:xlink="http://www.w3.org/1999/xlink"><style type="text/css">
	.st0{display:none;}
	.st1{fill:none;stroke:#303030;stroke-width:0.7;stroke-linecap:round;stroke-linejoin:round;stroke-miterlimit:10;}
	.st2{fill:#303030;}
</style><g class="st0" id="Padding__x26__Artboard"/><g id="Icons"><g><path class="st1" d="M34.95235,37.47676h-21.9047c-1.3942,0-2.52442-1.13022-2.52442-2.52441v-21.9047    c0-1.3942,1.13022-2.52442,2.52442-2.52442h21.9047c1.3942,0,2.52441,1.13022,2.52441,2.52442v21.9047    C37.47676,36.34655,36.34655,37.47676,34.95235,37.47676z"/><line class="st1" x1="13.25036" x2="13.25036" y1="15.81011" y2="25.61465"/><line class="st1" x1="13.25036" x2="13.25036" y1="28.57212" y2="30.16566"/><circle class="st1" cx="24" cy="24" r="3.21549"/><circle class="st2" cx="28.24781" cy="19.89086" r="0.46211"/><g><path class="st1" d="M27.19764,30.76474h-6.39556c-1.96662,0-3.56681-1.60019-3.56681-3.5671v-6.39527     c0-1.96691,1.60019-3.5671,3.56681-3.5671h6.39556c1.96691,0,3.5671,1.60019,3.5671,3.5671v6.39527     C30.76474,29.16454,29.16454,30.76474,27.19764,30.76474z"/></g></g></g></svg>